<svg width="25" height="25" viewBox="0 0 25 25" fill="none" xmlns="http://www.w3.org/2000/svg">
<g clip-path="url(#clip0_10_21)">
<path d="M18.935 18.5879C17.3294 18.5864 16.0265 19.8867 16.0249 21.4923C16.0233 23.0979 17.3237 24.4008 18.9293 24.4024C20.535 24.4039 21.8378 23.1036 21.8394 21.498C21.8394 21.497 21.8394 21.4961 21.8394 21.4952C21.8379 19.8913 20.5388 18.591 18.935 18.5879Z" fill="#929292"/>
<path d="M24.0914 4.66637C24.0219 4.6529 23.9512 4.64606 23.8803 4.64595H6.17897L5.89862 2.77038C5.72394 1.52479 4.6585 0.59804 3.40069 0.597656H1.12141C0.50206 0.597656 0 1.09972 0 1.71906C0 2.33841 0.50206 2.84047 1.12141 2.84047H3.40348C3.54607 2.83943 3.66675 2.9456 3.68384 3.0872L5.41079 14.9236C5.64756 16.4277 6.94128 17.5373 8.46384 17.5421H20.1293C21.5951 17.5441 22.8597 16.5138 23.1543 15.0778L24.9794 5.98041C25.097 5.37235 24.6995 4.78404 24.0914 4.66637Z" fill="#929292"/>
<path d="M11.8129 21.3706C11.7446 19.812 10.4584 18.5852 8.89829 18.5906C7.29399 18.6554 6.04598 20.0086 6.11081 21.6129C6.17302 23.1522 7.42524 24.3758 8.96559 24.4023H9.03567C10.6398 24.332 11.8831 22.9747 11.8129 21.3706Z" fill="#929292"/>
</g>
<defs>
<clipPath id="clip0_10_21">
<rect width="25" height="25" fill="white"/>
</clipPath>
</defs>
</svg>
