<svg width="50" height="50" viewBox="0 0 50 50" fill="none" xmlns="http://www.w3.org/2000/svg">
<g clip-path="url(#clip0_14_16)">
<path d="M44.9668 25.6475C44.7816 25.2359 44.7816 24.7639 44.9668 24.3523L46.6834 20.5374C47.6392 18.4133 46.8819 15.8816 44.9594 14.7735L41.5065 12.7833C41.1339 12.5686 40.8785 12.1866 40.8056 11.7355L40.1303 7.55302C39.7543 5.22432 37.7714 3.65949 35.6168 3.99064L31.7465 4.58536C31.3287 4.64942 30.9156 4.50353 30.6126 4.18507L27.8032 1.23274C26.2389 -0.411191 23.7884 -0.411289 22.2242 1.23274L19.4147 4.18536C19.1116 4.50392 18.6985 4.64952 18.2808 4.58565L14.4105 3.99093C12.2552 3.65959 10.273 5.22462 9.89698 7.55331L9.22168 11.7356C9.14877 12.1868 8.89337 12.5687 8.52093 12.7835L5.068 14.7737C3.14547 15.8817 2.38818 18.4136 3.34396 20.5377L5.06054 24.3525C5.24572 24.7641 5.24572 25.2362 5.06054 25.6477L3.34387 29.4626C2.38809 31.5867 3.14538 34.1184 5.06791 35.2265L8.52084 37.2167C8.89337 37.4314 9.14877 37.8134 9.22168 38.2645L9.89698 42.447C10.2393 44.5669 11.9126 46.0536 13.8358 46.0534C14.0252 46.0534 14.2174 46.0389 14.4106 46.0092L18.2809 45.4145C18.6983 45.3502 19.1117 45.4964 19.4148 45.8148L22.2242 48.7671C23.0064 49.5892 24.0099 50.0001 25.0137 50C26.0172 49.9999 27.0212 49.589 27.8032 48.7671L30.6126 45.8148C30.9157 45.4964 31.3289 45.3508 31.7465 45.4145L35.6168 46.0092C37.7723 46.3405 39.7543 44.7756 40.1303 42.4469L40.8057 38.2646C40.8786 37.8134 41.134 37.4315 41.5065 37.2167L44.9594 35.2265C46.8819 34.1185 47.6392 31.5866 46.6834 29.4625L44.9668 25.6475ZM43.7151 32.6789L40.2622 34.6692C39.1613 35.3038 38.4063 36.4325 38.191 37.7661L37.5157 41.9485C37.3885 42.7364 36.7179 43.2656 35.9886 43.1538L32.1183 42.5591C30.884 42.3691 29.6627 42.8007 28.7668 43.742L25.9574 46.6942C25.4283 47.2502 24.5991 47.2502 24.0698 46.6942L21.2605 43.7419C20.5034 42.9463 19.5136 42.5151 18.4803 42.5151C18.291 42.5151 18.1001 42.5296 17.909 42.559L14.0387 43.1537C13.31 43.2656 12.6389 42.7363 12.5116 41.9484L11.8362 37.7659C11.6208 36.4323 10.8659 35.3035 9.76492 34.6691L6.31199 32.6788C5.6615 32.3039 5.40529 31.4474 5.72865 30.7288L7.44532 26.9138C7.99261 25.6974 7.99261 24.3023 7.44532 23.0859L5.72865 19.271C5.40529 18.5524 5.6615 17.6958 6.31199 17.3209L9.76492 15.3307C10.8658 14.696 11.6208 13.5673 11.8361 12.2338L12.5114 8.05136C12.6387 7.26347 13.3092 6.73418 14.0385 6.84609L17.9088 7.44081C19.1427 7.63056 20.3645 7.19921 21.2603 6.25791L24.0697 3.30558C24.5989 2.74953 25.428 2.74953 25.9573 3.30558L28.7667 6.25791C29.6625 7.19931 30.8841 7.63056 32.1181 7.44081L35.9884 6.84609C36.7172 6.73408 37.3883 7.26347 37.5155 8.05136L38.1908 12.2339C38.4062 13.5674 39.1612 14.6962 40.2621 15.3307L43.7151 17.3209C44.3655 17.6958 44.6218 18.5524 44.2984 19.271L42.5817 23.0858C42.0344 24.3021 42.0344 25.6974 42.5817 26.9137L44.2984 30.7286C44.6218 31.4474 44.3656 32.304 43.7151 32.6789Z" fill="#5B3374"/>
<path d="M34.712 14.4643C34.1938 13.9012 33.3533 13.9012 32.8349 14.4643L15.315 33.4964C14.7967 34.0595 14.7967 34.9725 15.315 35.5356C15.5742 35.8171 15.9139 35.9579 16.2536 35.9579C16.5932 35.9579 16.933 35.8172 17.1921 35.5356L34.712 16.5036C35.2305 15.9404 35.2305 15.0275 34.712 14.4643Z" fill="#5B3374"/>
<path d="M19.7043 12.0229C17.0207 12.0229 14.8374 14.3947 14.8374 17.31C14.8374 20.2252 17.0207 22.597 19.7043 22.597C22.388 22.597 24.5713 20.2252 24.5713 17.31C24.5713 14.3947 22.388 12.0229 19.7043 12.0229ZM19.7043 19.7131C18.4845 19.7131 17.4922 18.6351 17.4922 17.3099C17.4922 15.9848 18.4845 14.9067 19.7043 14.9067C20.9242 14.9067 21.9166 15.9848 21.9166 17.3099C21.9165 18.6351 20.9242 19.7131 19.7043 19.7131Z" fill="#5B3374"/>
<path d="M30.323 27.4031C27.6394 27.4031 25.4561 29.7749 25.4561 32.6901C25.4561 35.6053 27.6394 37.9771 30.323 37.9771C33.0066 37.9771 35.19 35.6053 35.19 32.6901C35.19 29.7749 33.0066 27.4031 30.323 27.4031ZM30.323 35.0932C29.1032 35.0932 28.1107 34.0152 28.1107 32.6901C28.1107 31.365 29.1031 30.287 30.323 30.287C31.5428 30.287 32.5352 31.365 32.5352 32.6901C32.5352 34.0152 31.5428 35.0932 30.323 35.0932Z" fill="#5B3374"/>
</g>
<defs>
<clipPath id="clip0_14_16">
<rect width="46.0274" height="50" fill="white" transform="translate(2)"/>
</clipPath>
</defs>
</svg>
