<svg width="50" height="50" viewBox="0 0 50 50" fill="none" xmlns="http://www.w3.org/2000/svg">
<path d="M43.0699 7.69231H33.1386V5.76923C33.1386 2.58786 30.9112 0 28.173 0H21.5521C18.8139 0 16.5865 2.58786 16.5865 5.76923V7.69231H6.65521C5.74029 7.69231 5 8.55337 5 9.61538C5 10.6774 5.74029 11.5385 6.65521 11.5385H8.31043V40.3846C8.31043 45.6862 12.0234 50 16.5865 50H33.1386C37.7017 50 41.4147 45.6862 41.4147 40.3846V11.5385H43.0699C43.9848 11.5385 44.7251 10.6774 44.7251 9.61538C44.7251 8.55337 43.9848 7.69231 43.0699 7.69231ZM19.8969 5.76923C19.8969 4.70913 20.6389 3.84615 21.5521 3.84615H28.173C29.0862 3.84615 29.8282 4.70913 29.8282 5.76923V7.69231H19.8969V5.76923ZM38.1043 40.3846C38.1043 43.566 35.8769 46.1538 33.1386 46.1538H16.5865C13.8483 46.1538 11.6209 43.566 11.6209 40.3846V11.5385H38.1043V40.3846ZM23.2073 36.5385V21.1538C23.2073 20.0918 23.9476 19.2308 24.8626 19.2308C25.7775 19.2308 26.5178 20.0918 26.5178 21.1538V36.5385C26.5178 37.6005 25.7775 38.4615 24.8626 38.4615C23.9476 38.4615 23.2073 37.6005 23.2073 36.5385ZM16.5865 36.5385V21.1538C16.5865 20.0918 17.3268 19.2308 18.2417 19.2308C19.1566 19.2308 19.8969 20.0918 19.8969 21.1538V36.5385C19.8969 37.6005 19.1566 38.4615 18.2417 38.4615C17.3268 38.4615 16.5865 37.6005 16.5865 36.5385ZM29.8282 36.5385V21.1538C29.8282 20.0918 30.5685 19.2308 31.4834 19.2308C32.3983 19.2308 33.1386 20.0918 33.1386 21.1538V36.5385C33.1386 37.6005 32.3983 38.4615 31.4834 38.4615C30.5685 38.4615 29.8282 37.6005 29.8282 36.5385Z" fill="black"/>
</svg>
